<?xml version="1.0" encoding="UTF-8"?>
<svg width="21px" height="21px" viewBox="0 0 21 21" version="1.1" xmlns="http://www.w3.org/2000/svg" xmlns:xlink="http://www.w3.org/1999/xlink">
    <!-- Generator: Sketch 61 (89581) - https://sketch.com -->
    <title>invalid</title>
    <desc>Created with Sketch.</desc>
    <g id="tablet" stroke="none" stroke-width="1" fill="none" fill-rule="evenodd">
        <g id="T_01" transform="translate(-54.000000, -2041.000000)" fill="#D72F4B">
            <g id="form" transform="translate(24.000000, 975.000000)">
                <g id="information" transform="translate(0.000000, 959.000000)">
                    <g id="invalid-message" transform="translate(30.000000, 107.000000)">
                        <g id="invalid">
                            <path d="M10.5045917,0 L10.5,0 C4.70128694,0 0,4.7012184 0,10.5013121 C0,16.3014059 4.70063097,21.0026243 10.5,21.0026243 C16.2974011,21.0026243 20.9973761,16.303374 21,10.5059045 C20.9960642,4.70843489 16.300681,0.00918462985 10.5052477,2.33074001e-15 L10.5045917,0 Z" id="bg" fill-opacity="0.3"></path>
                            <path d="M10.5000003,14.1064739 C11.1242258,14.1072048 11.6307695,14.6122866 11.6307695,15.2372431 C11.6307695,15.8621996 11.1242258,16.3680123 10.5000003,16.3680123 C9.87504381,16.3680123 9.36923108,15.8621996 9.36923108,15.2372431 C9.36923108,14.6122866 9.87577475,14.1064739 10.5000003,14.1064739 Z M10.5000003,3.23076923 C11.0379745,3.23076923 11.4743476,3.66714235 11.4743476,4.20511659 L11.4743476,4.20511659 L11.4743476,11.6994778 C11.4743476,12.237452 11.0379745,12.6738251 10.5000003,12.6738251 C9.96202606,12.6738251 9.52565293,12.237452 9.52565293,11.6994778 L9.52565293,11.6994778 L9.52565293,4.20511659 C9.52565293,3.66714235 9.96202606,3.23076923 10.5000003,3.23076923 Z" id="sign"></path>
                        </g>
                    </g>
                </g>
            </g>
        </g>
    </g>
</svg>