<?xml version="1.0" encoding="UTF-8"?>
<svg width="28px" height="28px" viewBox="0 0 28 28" version="1.1" xmlns="http://www.w3.org/2000/svg" xmlns:xlink="http://www.w3.org/1999/xlink">
    <!-- Generator: Sketch 61 (89581) - https://sketch.com -->
    <title>social-whatsapp</title>
    <desc>Created with Sketch.</desc>
    <g id="desktop" stroke="none" stroke-width="1" fill="none" fill-rule="evenodd">
        <g id="D_Start" transform="translate(-177.000000, -1032.000000)">
            <g id="cards" transform="translate(70.000000, 560.000000)">
                <g id="1" transform="translate(0.000000, 82.000000)">
                    <g id="icons_card" transform="translate(105.000000, 388.000000)">
                        <g id="1">
                            <g id="Icons/Social/WhatsApp/Active" transform="translate(2.000000, 1.995134)">
                                <g id="social-whatsapp">
                                    <ellipse id="Oval" fill="#1CD86D" cx="14" cy="13.9659367" rx="14" ry="13.9659367"></ellipse>
                                    <g id="whatsapp-logo" transform="translate(7.000000, 6.982968)" fill="#FFFFFF" fill-rule="nonzero">
                                        <path d="M14,6.80311814 C14,10.5604207 10.9232667,13.6062363 7.12724444,13.6062363 C5.92215556,13.6062363 4.79002222,13.2989857 3.80504444,12.7597453 L0,13.9659367 L1.24055556,10.3158616 C0.614755556,9.29076183 0.254333333,8.08844985 0.254333333,6.80311814 C0.254333333,3.04581563 3.33137778,0 7.12724444,0 C10.9235778,0 14,3.04581563 14,6.80311814 Z M7.12724444,1.08344634 C3.94084444,1.08344634 1.34897778,3.64929927 1.34897778,6.80311814 C1.34897778,8.05462125 1.75793333,9.21363882 2.44968889,10.1564947 L1.72775556,12.2807137 L3.94831111,11.5766753 C4.86064444,12.1742622 5.95357778,12.5227899 7.1274,12.5227899 C10.3133333,12.5227899 12.9056667,9.95724736 12.9056667,6.80342849 C12.9056667,3.64960962 10.3134889,1.08344634 7.12724444,1.08344634 Z M10.5978444,8.36994107 C10.5553778,8.30057691 10.4432222,8.2586791 10.2749111,8.17534901 C10.1062889,8.09201892 9.2778,7.68840335 9.1238,7.63300514 C8.96933333,7.57745174 8.85671111,7.54951987 8.74455556,7.71633523 C8.6324,7.88330576 8.30946667,8.2586791 8.211,8.36994107 C8.11268889,8.48151338 8.01453333,8.49547932 7.84591111,8.41199405 C7.6776,8.32866396 7.13486667,8.15238281 6.49133333,7.58443471 C5.9906,7.1424904 5.65242222,6.59688781 5.55411111,6.4297621 C5.45595556,6.26294674 5.54384444,6.17278886 5.628,6.08976913 C5.70391111,6.01497378 5.79662222,5.8950219 5.88077778,5.79772587 C5.96524444,5.70027467 5.99324444,5.63091052 6.04908889,5.51949338 C6.10555556,5.40823141 6.0774,5.31093539 6.03508889,5.22729494 C5.99308889,5.14396486 5.65584444,4.32338848 5.51553333,3.98944742 C5.37522222,3.65581671 5.23506667,3.7113701 5.1366,3.7113701 C5.03844444,3.7113701 4.92597778,3.69740416 4.81366667,3.69740416 C4.70135556,3.69740416 4.51873333,3.7391468 4.36426667,3.90596215 C4.20995556,4.07293268 3.77486667,4.47639308 3.77486667,5.29681427 C3.77486667,6.11739065 4.37826667,6.91019032 4.46273333,7.02129711 C4.54688889,7.13240389 5.62784444,8.87100784 7.34051111,9.53873479 C9.05333333,10.2061514 9.05333333,9.98347229 9.36226667,9.95554042 C9.67088889,9.92776372 10.3587556,9.5522352 10.4996889,9.16305109 C10.6396889,8.77324628 10.6396889,8.43946039 10.5978444,8.36994107 Z" id="WhatsApp"></path>
                                    </g>
                                </g>
                            </g>
                        </g>
                    </g>
                </g>
            </g>
        </g>
    </g>
</svg>