<?xml version="1.0" encoding="UTF-8"?>
<svg width="28px" height="28px" viewBox="0 0 28 28" version="1.1" xmlns="http://www.w3.org/2000/svg" xmlns:xlink="http://www.w3.org/1999/xlink">
    <!-- Generator: Sketch 61 (89581) - https://sketch.com -->
    <title>social-vk</title>
    <desc>Created with Sketch.</desc>
    <g id="desktop" stroke="none" stroke-width="1" fill="none" fill-rule="evenodd">
        <g id="D_Start" transform="translate(-252.000000, -1032.000000)">
            <g id="cards" transform="translate(70.000000, 560.000000)">
                <g id="1" transform="translate(0.000000, 82.000000)">
                    <g id="icons_card" transform="translate(105.000000, 388.000000)">
                        <g id="5" transform="translate(75.000000, 0.000000)">
                            <g id="social-vk" transform="translate(2.000000, 1.995134)">
                                <g id="vk">
                                    <ellipse id="Oval" fill="#45668E" cx="14" cy="13.9659367" rx="14" ry="13.9659367"></ellipse>
                                    <path d="M17.7036209,15.1023585 C18.1098779,15.4981981 18.5396758,15.8707322 18.9043798,16.30749 C19.0659553,16.5006953 19.2182571,16.7004832 19.3341777,16.9251777 C19.4996766,17.2455855 19.3502282,17.5969487 19.0627452,17.6159846 L17.2770331,17.6156288 C16.8158475,17.6537006 16.4488251,17.4681452 16.1394063,17.1536083 C15.8924063,16.9029396 15.6632402,16.6351919 15.4253355,16.3759836 C15.3281405,16.2695962 15.2257737,16.1694354 15.1037896,16.0906233 C14.8603564,15.9326432 14.6488459,15.9810335 14.5093845,16.2347267 C14.367248,16.4928675 14.3347903,16.7789395 14.3212365,17.0662568 C14.3017975,17.4862915 14.1748199,17.5960592 13.7523339,17.6158067 C12.84958,17.6579703 11.9930161,17.5213389 11.1969091,17.0673242 C10.4946087,16.666859 9.95103034,16.1016534 9.47736098,15.4617275 C8.55498979,14.2142545 7.84858756,12.8450942 7.21387776,11.4366167 C7.07102793,11.1194113 7.1755348,10.9496895 7.52632833,10.943107 C8.10914138,10.931899 8.69195442,10.9333222 9.27476746,10.9425733 C9.51195882,10.9463093 9.66889746,11.0816954 9.76002888,11.3049667 C10.0749762,12.0779659 10.4610809,12.813427 10.9449156,13.4955165 C11.073855,13.677158 11.2054694,13.8582657 11.3929041,13.9865355 C11.5997778,14.1281483 11.7574298,14.0813591 11.8549814,13.8509716 C11.9174002,13.7045554 11.9443294,13.5479986 11.9578832,13.391086 C12.0042514,12.8536336 12.00978,12.3163592 11.9295273,11.7810417 C11.8795922,11.4460457 11.6907308,11.2297127 11.3559879,11.1663784 C11.1854954,11.1341775 11.2104629,11.0711989 11.2933907,10.9740626 C11.4373106,10.8061198 11.5721352,10.702223 11.8416059,10.702223 L13.8591592,10.7018672 C14.1771383,10.7641341 14.248474,10.9064585 14.2916321,11.2259767 L14.2934155,13.462604 C14.2896704,13.5862483 14.355656,13.9527335 14.5782235,14.0336805 C14.7565629,14.0923893 14.8742668,13.9497091 14.9809138,13.837095 C15.4647485,13.3249052 15.8094785,12.7203825 16.1181839,12.094689 C16.2544352,11.8187576 16.3719608,11.5332194 16.486098,11.2471474 C16.5709876,11.0356179 16.7029587,10.9315432 16.9422901,10.9351013 L18.8851192,10.937414 C18.9423661,10.937414 19.0005047,10.9379478 19.0572166,10.9477326 C19.3846477,11.0035949 19.4743524,11.1441402 19.3730557,11.4627688 C19.2136203,11.9633948 18.9038448,12.3804051 18.6010246,12.798483 C18.2764469,13.2460931 17.9302902,13.6780475 17.6089227,14.1276146 C17.3135927,14.5385761 17.3369551,14.7454802 17.7036209,15.1023585 Z" id="vk-icon" fill="#FEFEFE" fill-rule="nonzero"></path>
                                </g>
                            </g>
                        </g>
                    </g>
                </g>
            </g>
        </g>
    </g>
</svg>