<?xml version="1.0" encoding="UTF-8"?>
<svg width="28px" height="28px" viewBox="0 0 28 28" version="1.1" xmlns="http://www.w3.org/2000/svg" xmlns:xlink="http://www.w3.org/1999/xlink">
    <!-- Generator: Sketch 61 (89581) - https://sketch.com -->
    <title>social-youtube</title>
    <desc>Created with Sketch.</desc>
    <g id="desktop" stroke="none" stroke-width="1" fill="none" fill-rule="evenodd">
        <g id="D_Start" transform="translate(-1061.000000, -2950.000000)">
            <g id="footer" transform="translate(70.000000, 2950.000000)">
                <g id="social" transform="translate(871.000000, 0.000000)">
                    <g id="Icons/Social/YouTube/Active" transform="translate(120.000000, 0.000000)">
                        <g id="you-tube">
                            <circle id="Oval" fill="#FC0D1C" cx="14" cy="14" r="14"></circle>
                            <g id="youtube" transform="translate(7.777778, 9.851852)" fill="#FEFEFE">
                                <path d="M10.8839976,0.172487703 C11.5358366,0.245334989 12.0771424,0.733447869 12.2293283,1.39538447 C12.4462474,2.33789132 12.4444444,3.36676908 12.4444444,4.33704444 C12.4444444,5.3073198 12.4439033,6.33619756 12.2269842,7.27870441 C12.0744377,7.9404607 11.5331319,8.42857358 10.8816535,8.50124055 C9.55911981,8.64915042 8.22294102,8.67094278 6.88878723,8.67358285 L6.22195163,8.67380206 C4.66673419,8.67470364 3.1048451,8.67380206 1.56152846,8.50124055 C0.910050132,8.42857358 0.369104938,7.9404607 0.216919023,7.27870441 C0.0309884319,6.47068684 0.00442691884,5.59947805 0.000632416977,4.75603252 L0,4.33704444 C0,3.36676908 0.00252441091,2.337711 0.219443434,1.39538447 C0.371629349,0.733628184 0.912574543,0.245334989 1.56405287,0.172487703 C2.88689571,0.0247323866 4.22338361,0.00296210242 5.55761941,0.000325191737 L6.22447604,0.00010650058 C7.77933284,-0.000795074744 9.34122193,0.00010650058 10.8839976,0.172487703 Z M4.61642629,2.15324869 L4.61642629,6.26857941 L4.61642629,6.26857941 C5.93885698,5.58284122 7.2497475,4.90341406 8.57271913,4.21731524 C7.24578057,3.52490539 5.93525067,2.84151129 4.61642629,2.15324869 Z" id="Combined-Shape"></path>
                            </g>
                        </g>
                    </g>
                </g>
            </g>
        </g>
    </g>
</svg>