<?xml version="1.0" encoding="UTF-8"?>
<svg width="28px" height="28px" viewBox="0 0 28 28" version="1.1" xmlns="http://www.w3.org/2000/svg" xmlns:xlink="http://www.w3.org/1999/xlink">
    <!-- Generator: Sketch 61 (89581) - https://sketch.com -->
    <title>social-twitter</title>
    <desc>Created with Sketch.</desc>
    <g id="desktop" stroke="none" stroke-width="1" fill="none" fill-rule="evenodd">
        <g id="D_Start" transform="translate(-1181.000000, -2950.000000)" fill-rule="nonzero">
            <g id="footer" transform="translate(70.000000, 2950.000000)">
                <g id="social" transform="translate(871.000000, 0.000000)">
                    <g id="social-twitter" transform="translate(240.000000, 0.000000)">
                        <circle id="Oval" fill="#1CB7EB" cx="14" cy="14" r="14"></circle>
                        <path d="M21.4666667,8.98333333 C20.9416667,9.275 20.3,9.45 19.7166667,9.50833333 C20.3583333,9.1 20.825,8.45833333 21.0583333,7.7 C20.475,8.05 19.8333333,8.34166667 19.075,8.51666667 C18.4916667,7.875 17.7333333,7.46666667 16.8583333,7.46666667 C15.1666667,7.46666667 13.7666667,8.925 13.7666667,10.7916667 C13.7666667,11.025 13.7666667,11.3166667 13.825,11.55 C11.2583333,11.4333333 8.98333333,10.0916667 7.46666667,8.10833333 C7.175,8.575 7.05833333,9.15833333 7.05833333,9.8 C7.05833333,10.9666667 7.58333333,11.9583333 8.4,12.5416667 C7.875,12.5416667 7.40833333,12.3666667 7,12.1333333 C7,12.1333333 7,12.1916667 7,12.1916667 C7,13.7666667 8.05,15.1083333 9.45,15.4583333 C9.21666667,15.5166667 8.925,15.575 8.63333333,15.575 C8.45833333,15.575 8.225,15.575 8.05,15.5166667 C8.45833333,16.8583333 9.56666667,17.7916667 10.9083333,17.7916667 C9.85833333,18.6666667 8.51666667,19.1916667 7.11666667,19.1916667 C6.88333333,19.1916667 6.65,19.1916667 6.35833333,19.1333333 C7.7,20.0666667 9.33333333,20.65 11.0833333,20.65 C16.7416667,20.65 19.8333333,15.6333333 19.8333333,11.2583333 C19.8333333,11.1416667 19.8333333,10.9666667 19.8333333,10.85 C20.5333333,10.2666667 21.0583333,9.68333333 21.4666667,8.98333333 Z" id="Path" fill="#FFFFFF"></path>
                    </g>
                </g>
            </g>
        </g>
    </g>
</svg>