<?xml version="1.0" encoding="UTF-8"?>
<svg width="28px" height="28px" viewBox="0 0 28 28" version="1.1" xmlns="http://www.w3.org/2000/svg" xmlns:xlink="http://www.w3.org/1999/xlink">
    <!-- Generator: Sketch 61 (89581) - https://sketch.com -->
    <title>social-viber</title>
    <desc>Created with Sketch.</desc>
    <g id="desktop" stroke="none" stroke-width="1" fill="none" fill-rule="evenodd">
        <g id="D_Start" transform="translate(-202.000000, -1032.000000)">
            <g id="cards" transform="translate(70.000000, 560.000000)">
                <g id="1" transform="translate(0.000000, 82.000000)">
                    <g id="icons_card" transform="translate(105.000000, 388.000000)">
                        <g id="2" transform="translate(25.000000, 0.000000)">
                            <g id="Icons/Social/Viber/Active" transform="translate(2.000000, 1.995134)">
                                <g id="social-viber">
                                    <ellipse id="Oval" fill="#59267C" cx="14" cy="13.9659367" rx="14" ry="13.9659367"></ellipse>
                                    <g id="Group" transform="translate(7.777778, 7.758854)" fill="#FFFFFF" fill-rule="nonzero">
                                        <path d="M12.1567847,3.1097281 L12.1530884,3.09497859 C11.8540931,1.88920663 10.5061503,0.595347347 9.26827723,0.326168896 L9.25431316,0.323300937 C7.25211294,-0.0577279204 5.2219846,-0.0577279204 3.22019509,0.323300937 L3.20582032,0.326168896 C1.9683579,0.595347347 0.620415108,1.88920663 0.321009168,3.09497859 L0.317723506,3.1097281 C-0.051913458,4.79362982 -0.051913458,6.50129463 0.317723506,8.18519636 L0.321009168,8.19994586 C0.607642098,9.35425844 1.85520792,10.588669 3.04687642,10.9281534 L3.04687642,12.2741276 C3.04687642,12.761271 3.64199193,13.0005407 3.98041511,12.6490109 L5.34745581,11.2314606 C5.64394573,11.2480128 5.94059993,11.2572313 6.23725413,11.2572313 C7.24513091,11.2572313 8.25341841,11.1621789 9.25431316,10.9716645 L9.26827723,10.9687965 C10.5061503,10.6996181 11.8540931,9.40575879 12.1530884,8.19998683 L12.1567847,8.18523733 C12.5264217,6.50129463 12.5264217,4.79362982 12.1567847,3.1097281 Z M11.0749806,7.94101012 C10.8753766,8.72765034 9.85189292,9.70562441 9.0386916,9.88630583 C7.97409608,10.0882511 6.90108104,10.1745767 5.82913385,10.1449548 C5.80781812,10.1443812 5.7873238,10.1526163 5.77245618,10.1678575 C5.62033003,10.3236286 4.77431316,11.1899981 4.77431316,11.1899981 L3.71263366,12.2769546 C3.6350099,12.3576672 3.49865493,12.3027663 3.49865493,12.1913256 L3.49865493,9.96161025 C3.49865493,9.92477746 3.4722875,9.89347573 3.436022,9.88638778 C3.43581665,9.8863468 3.43561129,9.88630583 3.43540594,9.88626486 C2.62220462,9.70558344 1.59913165,8.72760937 1.39911698,7.94096915 C1.06644371,6.41890226 1.06644371,4.87594025 1.39911698,3.35387336 C1.59913165,2.56723314 2.62220462,1.58925907 3.43540594,1.40857765 C5.29467987,1.05581867 7.17982838,1.05581867 9.0386916,1.40857765 C9.85230363,1.58925907 10.8753766,2.56723314 11.0749806,3.35387336 C11.4080235,4.87598122 11.4080235,6.41894323 11.0749806,7.94101012 Z" id="Shape"></path>
                                        <path d="M8.00621342,8.97023871 C7.88119399,8.93238165 7.76204767,8.90693876 7.65140301,8.86113335 C6.50487129,8.38660903 5.44968097,7.77442267 4.61384965,6.83598546 C4.13853759,6.30234021 3.76651852,5.69986394 3.4520396,5.06227565 C3.30291162,4.75991081 3.17723506,4.4457054 3.04913531,4.13354854 C2.93233003,3.84888311 3.1043755,3.55479438 3.28553869,3.34031201 C3.45553062,3.13902225 3.67427356,2.98497187 3.91116978,2.87144166 C4.09607041,2.78282172 4.27846571,2.83391237 4.41350642,2.99025711 C4.70543748,3.32826658 4.97358856,3.68356575 5.19072974,4.07536994 C5.32425083,4.31636045 5.28761569,4.61094082 5.0456267,4.77494711 C4.98681335,4.81481175 4.93321599,4.86160045 4.87842758,4.90662741 C4.83037477,4.94608233 4.78515585,4.98594696 4.75221709,5.03937295 C4.69200733,5.13712938 4.68913238,5.25242134 4.72790319,5.35869971 C5.02632343,6.17680554 5.5293172,6.81295985 6.35475761,7.15559902 C6.48684122,7.21041802 6.61949982,7.27425059 6.77166703,7.25655119 C7.02651118,7.22684732 7.10902237,6.94799975 7.28759809,6.80230743 C7.46214888,6.65993374 7.68520425,6.65804908 7.87322626,6.77674162 C8.06128933,6.89547513 8.24360249,7.02293543 8.42480675,7.15174777 C8.60268427,7.27818379 8.77978144,7.40187477 8.94385919,7.54601021 C9.10161203,7.68461457 9.15594866,7.86644318 9.06711258,8.05454033 C8.90447231,8.3990232 8.66782252,8.68561425 8.32644224,8.86854908 C8.23004914,8.92013137 8.11492776,8.93684748 8.00621342,8.97023871 C7.88119399,8.93234068 8.11492776,8.93684748 8.00621342,8.97023871 Z" id="Shape"></path>
                                        <path d="M6.2403755,2.47754796 C7.74007481,2.51946113 8.97182838,3.51230762 9.23579025,4.99135512 C9.28076274,5.24336678 9.29678034,5.50103243 9.31678181,5.75681341 C9.32520132,5.86440285 9.26412908,5.96662511 9.14773451,5.9680333 C9.02752035,5.9694521 8.97343014,5.8691145 8.9656267,5.76156603 C8.95018409,5.54868152 8.93946461,5.33485468 8.91005794,5.12373192 C8.75481041,4.00928396 7.86398533,3.08727607 6.75199413,2.88942786 C6.5846718,2.85964206 6.41340667,2.85181663 6.24390759,2.83407625 C6.13675394,2.82285024 5.99641511,2.81637685 5.9726762,2.6835084 C5.95275688,2.57210867 6.0470143,2.48340679 6.15334653,2.47771184 C6.18226036,2.47611398 6.21133847,2.47742505 6.2403755,2.47754796 C7.74007481,2.51946113 6.21133847,2.47742505 6.2403755,2.47754796 Z" id="Shape"></path>
                                        <path d="M8.51947488,5.42482665 C8.51701063,5.44350936 8.51569637,5.48743011 8.50473047,5.52881066 C8.46493289,5.67900978 8.23666153,5.69781539 8.18409094,5.54622327 C8.16852512,5.50123728 8.16618409,5.4500647 8.16610194,5.40163716 C8.16556802,5.08476864 8.09652805,4.76822789 7.93635204,4.49253508 C7.7716993,4.20918072 7.52014081,3.97097622 7.22508838,3.82684079 C7.04667693,3.73969581 6.85372644,3.68553235 6.65818849,3.65324732 C6.57272021,3.63915335 6.48634837,3.63059045 6.40046938,3.61866793 C6.29639604,3.60424619 6.24082728,3.53807828 6.24575578,3.43577408 C6.2503557,3.3399023 6.32058673,3.27094837 6.4253172,3.27684817 C6.76949028,3.29635029 7.10191713,3.37054849 7.40789439,3.53217848 C8.03011661,3.86088756 8.38554309,4.37974234 8.48928786,5.07255933 C8.49396993,5.103943 8.50152695,5.13503987 8.50390906,5.16654645 C8.50978218,5.24435008 8.51347855,5.32223566 8.51947488,5.42482665 C8.51701063,5.44350936 8.51347855,5.32223566 8.51947488,5.42482665 Z" id="Shape"></path>
                                        <path d="M7.58667547,5.38860843 C7.46120425,5.39086182 7.39405354,5.32158013 7.38111624,5.20682079 C7.37212175,5.12680473 7.3650165,5.04572343 7.34587752,4.96787882 C7.30817455,4.81456592 7.22648478,4.67247903 7.09719399,4.57853288 C7.03616282,4.53416146 6.96699963,4.50183546 6.89455079,4.4809813 C6.80251118,4.45447317 6.70693949,4.46176598 6.61510524,4.43931395 C6.51538541,4.4149363 6.46022736,4.33438762 6.47591639,4.24105603 C6.49016795,4.15612347 6.5730077,4.08983265 6.666033,4.09655186 C7.24747195,4.13842407 7.66302604,4.43828968 7.72233223,5.12110978 C7.72652145,5.1692915 7.73144994,5.22021826 7.72073047,5.26631046 C7.70237184,5.3452203 7.64380491,5.38475717 7.58667547,5.38860843 C7.46120425,5.39086182 7.64380491,5.38475717 7.58667547,5.38860843 Z" id="Shape"></path>
                                    </g>
                                </g>
                            </g>
                        </g>
                    </g>
                </g>
            </g>
        </g>
    </g>
</svg>