<?xml version="1.0" encoding="UTF-8"?>
<svg width="28px" height="28px" viewBox="0 0 28 28" version="1.1" xmlns="http://www.w3.org/2000/svg" xmlns:xlink="http://www.w3.org/1999/xlink">
    <!-- Generator: Sketch 61 (89581) - https://sketch.com -->
    <title>social-telegramm</title>
    <desc>Created with Sketch.</desc>
    <g id="desktop" stroke="none" stroke-width="1" fill="none" fill-rule="evenodd">
        <g id="D_Start" transform="translate(-1141.000000, -2950.000000)">
            <g id="footer" transform="translate(70.000000, 2950.000000)">
                <g id="social" transform="translate(871.000000, 0.000000)">
                    <g id="social-telegramm" transform="translate(200.000000, 0.000000)">
                        <circle id="Oval" fill="#139BD0" fill-rule="nonzero" cx="14" cy="14" r="14"></circle>
                        <path d="M14.4585778,17.3456889 C13.9194222,17.8708444 13.3849333,18.3872889 12.8554222,18.9077778 C12.6703111,19.0900889 12.4621778,19.1908889 12.1964889,19.1768889 C12.0151111,19.1672444 11.9136889,19.0876 11.858,18.9155556 C11.4523111,17.6564889 11.0407111,16.4005333 10.6372,15.1402222 C10.598,15.0179556 10.5401333,14.9585333 10.4163111,14.9202667 C9.46057778,14.6284444 8.50671111,14.3297778 7.5544,14.0270667 C7.40786667,13.9804 7.26008889,13.9194222 7.13346667,13.8332444 C6.93777778,13.7007111 6.90915556,13.4844889 7.08462222,13.3289333 C7.24671111,13.1855111 7.44022222,13.0604444 7.6412,12.9808 C8.80942222,12.5178667 9.98386667,12.0698667 11.1564444,11.6178222 C14.1322222,10.4688889 17.108,9.32088889 20.0840889,8.17195556 C20.65,7.95324444 21.0849333,8.26124444 21.0261333,8.8732 C20.9884889,9.26457778 20.8870667,9.64973333 20.8052444,10.0361333 C20.1590667,13.0872 19.5122667,16.1385778 18.8626667,19.1890222 C18.7083556,19.9132889 18.1996889,20.1024444 17.6036,19.6628444 C16.6052444,18.9270667 15.6078222,18.1888 14.6100889,17.4517778 C14.5624889,17.4172444 14.5130222,17.3839556 14.4585778,17.3456889 Z M12.2176444,18.2721778 C12.2288444,18.2690667 12.2400444,18.2659556 12.2512444,18.2631556 C12.2574667,18.2345333 12.2664889,18.2065333 12.2689778,18.1782222 C12.3330667,17.4866222 12.4008889,16.7953333 12.4565778,16.1024889 C12.4690222,15.9481778 12.5219111,15.8386667 12.6379556,15.7347556 C13.5582222,14.9118667 14.4728889,14.0836889 15.3894222,13.2573778 C16.4039556,12.3424 17.4188,11.4283556 18.4296,10.5096444 C18.4921333,10.4530222 18.5182667,10.3565778 18.5612,10.2781778 C18.466,10.2679111 18.3639556,10.2296444 18.2774667,10.2520444 C18.1595556,10.2825333 18.0478667,10.3509778 17.9427111,10.4172444 C15.7036444,11.8275111 13.4664444,13.2402667 11.2258222,14.6477333 C11.0992,14.7273778 11.0755556,14.7948889 11.1237778,14.9339556 C11.2889778,15.4084 11.4392444,15.8872 11.5951111,16.3650667 C11.8026222,17.0009778 12.0101333,17.6365778 12.2176444,18.2721778 Z" id="Shape" fill="#FFFFFF"></path>
                    </g>
                </g>
            </g>
        </g>
    </g>
</svg>