<?xml version="1.0" encoding="UTF-8"?>
<svg width="28px" height="28px" viewBox="0 0 28 28" version="1.1" xmlns="http://www.w3.org/2000/svg" xmlns:xlink="http://www.w3.org/1999/xlink">
    <!-- Generator: Sketch 61 (89581) - https://sketch.com -->
    <title>social-ymaps</title>
    <desc>Created with Sketch.</desc>
    <g id="desktop" stroke="none" stroke-width="1" fill="none" fill-rule="evenodd">
        <g id="D_Start" transform="translate(-303.000000, -1032.000000)">
            <g id="cards" transform="translate(70.000000, 560.000000)">
                <g id="1" transform="translate(0.000000, 82.000000)">
                    <g id="icons_card" transform="translate(105.000000, 388.000000)">
                        <g id="7" transform="translate(126.000000, 0.000000)">
                            <g id="social-ymaps" transform="translate(2.000000, 1.995134)">
                                <g id="ok">
                                    <ellipse id="Oval" fill="#EE0000" cx="14" cy="13.9659367" rx="14" ry="13.9659367"></ellipse>
                                    <path d="M14,7 C14.341138,7 14.6740342,7.03457107 14.9959739,7.09803527 L15.0410992,7.10929103 L15.0410992,7.10929103 C15.3441817,7.17195431 15.6372056,7.26076614 15.9172737,7.37431348 L15.9470873,7.38505436 L15.9470873,7.38505436 L15.9712621,7.39631013 L15.9712621,7.39631013 C16.2476365,7.51211434 16.5102688,7.65256681 16.7582613,7.81296072 L16.8079531,7.84255322 L16.8079531,7.84255322 C17.0541823,8.00586476 17.2824096,8.19241008 17.4944963,8.3948565 L17.5511707,8.44618535 L17.5511707,8.44618535 C17.7539777,8.64584714 17.9360675,8.86488543 18.1012643,9.0961692 C18.1228088,9.12492297 18.1440295,9.15390604 18.1649226,9.18311317 C18.300562,9.38221271 18.4189189,9.59296749 18.5231844,9.81151145 L18.5670161,9.90563877 C18.5862079,9.94597973 18.6048327,9.98657483 18.6228851,10.0274127 C18.7160697,10.2487965 18.7914384,10.4788375 18.8503298,10.7152677 L18.874564,10.8169794 C18.8849116,10.859536 18.8946714,10.9022264 18.9038407,10.9450391 C18.9636645,11.2465134 19,11.5564602 19,11.874974 C18.9987297,11.9466533 18.9927039,12.0181356 18.9881933,12.0896827 L18.9833476,12.1970847 C18.9822675,12.2511467 18.9728555,12.3315546 18.9658928,12.4054362 L18.9572923,12.5013314 C18.9036618,13.0517971 18.7028675,13.9701648 17.9637336,15.2886953 C16.6064405,17.7099424 13.7278174,21.3587147 12.74445,22.5828933 L12.4069266,23 L13.9881774,16.7491985 C13.6845087,16.748512 13.3883298,16.7207135 13.1005741,16.6695286 L12.9930624,16.6492453 L12.9546541,16.6395485 C12.6774577,16.5819866 12.4080594,16.5037732 12.1498127,16.4038515 L12.0534995,16.3653612 L12.026052,16.3525036 L12.026052,16.3525036 C11.7427567,16.2336216 11.4730685,16.0897309 11.219713,15.9240681 L11.19178,15.9073075 L11.19178,15.9073075 C10.9411734,15.7411083 10.7088667,15.5512092 10.4936876,15.3445293 L10.448024,15.3028902 L10.448024,15.3028902 C10.2431735,15.1011574 10.0592589,14.8798008 9.89282841,14.6458339 C9.87303362,14.6193151 9.85351384,14.5926021 9.83427204,14.5656992 C9.69766746,14.3651079 9.57855193,14.1526238 9.47378957,13.9323036 L9.42976103,13.8374127 C9.41170758,13.7994005 9.3941574,13.761163 9.37711487,13.7227097 C9.28347335,13.500356 9.2079206,13.2692018 9.14891179,13.0316624 L9.12463069,12.9294759 C9.11448758,12.8878747 9.10490632,12.8461451 9.09588939,12.8042981 C9.03608028,12.5029354 9,12.1932546 9,11.8748882 C9,11.5422897 9.03536442,11.2177232 9.10045737,10.9038376 L9.11173796,10.8603663 L9.11173796,10.8603663 C9.17637176,10.563024 9.26798216,10.2754914 9.38544109,10.000878 L9.39457998,9.9765229 L9.39457998,9.9765229 L9.40424696,9.95714354 L9.40424696,9.95714354 C9.52384465,9.6850916 9.66917793,9.42664384 9.83535169,9.18276563 L9.86328618,9.13824601 L9.86328618,9.13824601 C10.0307259,8.8981307 10.222179,8.67571424 10.4297638,8.4688828 L10.4840207,8.41205479 L10.4840207,8.41205479 C10.6883504,8.21483866 10.9124717,8.03775704 11.1490766,7.87703419 C11.178919,7.85567162 11.2090039,7.83463286 11.2393257,7.81392182 C11.4434566,7.68174652 11.6595588,7.56646167 11.8836226,7.46486331 L11.9801258,7.42214975 C12.0215021,7.40343818 12.063139,7.38527947 12.1050249,7.36767873 C12.3321597,7.27679827 12.5681883,7.20334045 12.8107671,7.14592556 L12.9151236,7.12229737 C12.9586827,7.11221093 13.0023787,7.10269535 13.0461999,7.09375321 C13.3554127,7.03542776 13.6733126,7 14,7 Z M14,10 C12.8954305,10 12,10.8954305 12,12 C12,13.1045695 12.8954305,14 14,14 C15.1045695,14 16,13.1045695 16,12 C16,10.8954305 15.1045695,10 14,10 Z" id="Shape" fill="#FFFFFF"></path>
                                </g>
                            </g>
                        </g>
                    </g>
                </g>
            </g>
        </g>
    </g>
</svg>