<?xml version="1.0" encoding="UTF-8"?>
<svg width="28px" height="28px" viewBox="0 0 28 28" version="1.1" xmlns="http://www.w3.org/2000/svg" xmlns:xlink="http://www.w3.org/1999/xlink">
    <!-- Generator: Sketch 61 (89581) - https://sketch.com -->
    <title>social-instagramm</title>
    <desc>Created with Sketch.</desc>
    <g id="desktop" stroke="none" stroke-width="1" fill="none" fill-rule="evenodd">
        <g id="D_Start" transform="translate(-1101.000000, -2950.000000)" fill="#517FA6">
            <g id="footer" transform="translate(70.000000, 2950.000000)">
                <g id="social" transform="translate(871.000000, 0.000000)">
                    <g id="social-instagramm" transform="translate(160.000000, 0.000000)">
                        <path d="M18.3264667,10.5364 L18.3264667,10.5336 C18.5607333,10.5336 18.7954667,10.5382667 19.0302,10.5326667 C19.3316667,10.5252 19.5771333,10.2666667 19.5771333,9.96473333 C19.5771333,9.51533333 19.5771333,9.06546667 19.5771333,8.61606667 C19.5771333,8.2936 19.3218667,8.0374 19.0003333,8.03693333 C18.5518667,8.03693333 18.1034,8.03646667 17.6549333,8.03693333 C17.3338667,8.0374 17.0781333,8.29453333 17.0781333,8.617 C17.0776667,9.06266667 17.0762667,9.50833333 17.0795333,9.954 C17.08,10.0207333 17.0926,10.0898 17.1136,10.1528 C17.1943333,10.3898667 17.4118,10.5354667 17.6778,10.5368667 C17.8938667,10.5368667 18.1104,10.5364 18.3264667,10.5364 Z M14,11.1145995 C12.4208,11.1136667 11.137,12.3844 11.1150667,13.9561333 C11.0922,15.5708 12.3844,16.8499333 13.9337333,16.8830667 C15.5456,16.9176 16.8494667,15.6296 16.8835333,14.063 C16.9185333,12.4483333 15.6156,11.1136667 14,11.1145995 Z M8.42146667,12.6541333 L8.42146667,12.6924 C8.42146667,14.7994 8.421,16.9064 8.42146667,19.0134 C8.42146667,19.3162667 8.68373333,19.5771333 8.98706667,19.5771333 C12.3284,19.5776 15.6692667,19.5776 19.0106,19.5771333 C19.3167333,19.5771333 19.5776,19.3172 19.5776,19.0115333 C19.5780667,16.9073333 19.5776,14.8022 19.5776,12.6984667 L19.5776,12.6546 L18.2186667,12.6546 C18.4104667,13.2678 18.4692667,13.8917333 18.3941333,14.5278 C18.319,15.1638667 18.1136667,15.7556 17.78,16.3025333 C17.4463333,16.8494667 17.0128,17.3035333 16.4831333,17.6642667 C15.1092667,18.6004 13.3,18.6825333 11.8416667,17.864 C11.1048,17.451 10.5261333,16.8746667 10.122,16.1312667 C9.52046667,15.0238667 9.42433333,13.8609333 9.77713333,12.6541333 C9.3254,12.6541333 8.87646667,12.6541333 8.42146667,12.6541333 Z M19.6956667,21.119 C19.7698667,21.1068667 19.8440667,21.0961333 19.9173333,21.0802667 C20.4988,20.9566 20.9738667,20.4717333 21.0877333,19.887 C21.0994,19.8230667 21.1087333,19.7596 21.119,19.6961333 L21.119,8.30386667 C21.1092,8.2418 21.1003333,8.1788 21.0886667,8.11673333 C20.9636,7.4788 20.4372,6.98366667 19.7913333,6.895 C19.7642667,6.89173333 19.7386,6.88566667 19.712,6.881 L8.28846667,6.881 C8.21986667,6.8936 8.15033333,6.90293333 8.08266667,6.91833333 C7.45173333,7.06206667 6.98506667,7.5698 6.895,8.20913333 C6.89126667,8.23573333 6.88566667,8.26233333 6.88146667,8.28893333 L6.88146667,19.712 C6.89453333,19.7838667 6.9048,19.8571333 6.92113333,19.929 C7.06066667,20.5459333 7.58706667,21.0242667 8.2138,21.105 C8.24366667,21.1087333 8.27446667,21.1148 8.3048,21.119 L19.6956667,21.119 L19.6956667,21.119 Z M14,28 C6.26826667,28 0,21.7317333 0,14 C0,6.2678 6.26826667,0 14,0 C21.7317333,0 28,6.2678 28,14 C28,21.7317333 21.7317333,28 14,28 Z" id="Shape"></path>
                    </g>
                </g>
            </g>
        </g>
    </g>
</svg>