<?xml version="1.0" encoding="UTF-8"?>
<svg width="28px" height="28px" viewBox="0 0 28 28" version="1.1" xmlns="http://www.w3.org/2000/svg" xmlns:xlink="http://www.w3.org/1999/xlink">
    <!-- Generator: Sketch 61 (89581) - https://sketch.com -->
    <title>social-transport</title>
    <desc>Created with Sketch.</desc>
    <g id="desktop" stroke="none" stroke-width="1" fill="none" fill-rule="evenodd">
        <g id="D_Start" transform="translate(-355.000000, -1032.000000)">
            <g id="cards" transform="translate(70.000000, 560.000000)">
                <g id="1" transform="translate(0.000000, 82.000000)">
                    <g id="icons_card" transform="translate(105.000000, 388.000000)">
                        <g id="9" transform="translate(178.000000, 0.000000)">
                            <g id="social-transport" transform="translate(2.000000, 1.995134)">
                                <ellipse id="Oval" fill="#007BFF" cx="14" cy="13.9659367" rx="14" ry="13.9659367"></ellipse>
                                <path d="M13.5,7 C16.7192831,7 18.1603333,7.49135316 18.7103333,7.76234944 C18.8620946,7.83711524 18.96651,7.98353691 18.9932458,8.15179728 L19,8.23751673 L19,20.8998662 C19,20.9305855 18.9820026,20.9569136 18.9563273,20.9681576 L18.9284749,20.9739777 L16.3591963,20.9739777 C16.3295491,20.9739777 16.3041398,20.9553295 16.2932882,20.9287257 L16.2876712,20.8998662 L16.2876712,19.3866171 L10.7123288,19.3866171 L10.7123288,20.8998662 C10.7123288,20.9305855 10.6943313,20.9569136 10.668656,20.9681576 L10.6408037,20.9739777 L8.07152511,20.9739777 C8.04187785,20.9739777 8.01646861,20.9553295 8.00561694,20.9287257 L8,20.8998662 L8,8.23751673 C8,8.03433457 8.11261187,7.84957621 8.28966667,7.76234944 C8.83966667,7.49135316 10.2807169,7 13.5,7 Z M17.216895,16.6542751 C16.7175753,16.6542751 16.3127854,17.0737026 16.3127854,17.5910781 C16.3127854,18.1085056 16.7175753,18.527881 17.216895,18.527881 C17.7162146,18.527881 18.1210046,18.1085056 18.1210046,17.5910781 C18.1210046,17.0737026 17.7162146,16.6542751 17.216895,16.6542751 Z M9.78310502,16.6542751 C9.28378539,16.6542751 8.87899543,17.0737026 8.87899543,17.5910781 C8.87899543,18.1085056 9.28378539,18.527881 9.78310502,18.527881 C10.2824247,18.527881 10.6872146,18.1085056 10.6872146,17.5910781 C10.6872146,17.0737026 10.2824247,16.6542751 9.78310502,16.6542751 Z M13.5,8.53531599 C10.4192466,8.53531599 9.1299863,8.83342751 8.65090868,8.99939777 C8.52667732,9.04242131 8.43652448,9.15017534 8.4099244,9.27913875 L8.40182648,9.35871375 L8.40182648,15.3904758 C8.40182648,15.5736338 8.52723166,15.7264685 8.69395306,15.7618153 L8.7676895,15.7695167 L18.2323105,15.7695167 C18.4091204,15.7695167 18.5566269,15.6395768 18.5907408,15.4668615 L18.5981735,15.3904758 L18.5981735,9.35871375 C18.5981735,9.19586617 18.4981689,9.05102602 18.3490913,8.99939777 C17.8700137,8.83342751 16.5807534,8.53531599 13.5,8.53531599 Z M7,8.9739881 L7,11.9739881 C6.44770588,11.9739881 6,11.5588426 6,11.0467154 L6,11.0467154 L6,9.48022447 C6,9.20067901 6.24441176,8.9739881 6.54594118,8.9739881 L6.54594118,8.9739881 L7,8.9739881 Z M20.4540706,9.00077382 C20.7555412,9.00077382 21.0000118,9.2233631 21.0000118,9.49797025 L21.0000118,9.49797025 L21.0000118,11.0364881 C21.0000118,11.5394702 20.5522471,11.9472024 20.0000118,11.9472024 L20.0000118,11.9472024 L20.0000118,9.00077382 Z" id="Combined-Shape" fill="#FFFFFF"></path>
                            </g>
                        </g>
                    </g>
                </g>
            </g>
        </g>
    </g>
</svg>