<?xml version="1.0" encoding="UTF-8"?>
<svg width="28px" height="28px" viewBox="0 0 28 28" version="1.1" xmlns="http://www.w3.org/2000/svg" xmlns:xlink="http://www.w3.org/1999/xlink">
    <!-- Generator: Sketch 61 (89581) - https://sketch.com -->
    <title>social-ok</title>
    <desc>Created with Sketch.</desc>
    <g id="desktop" stroke="none" stroke-width="1" fill="none" fill-rule="evenodd">
        <g id="D_Start" transform="translate(-277.000000, -1032.000000)">
            <g id="cards" transform="translate(70.000000, 560.000000)">
                <g id="1" transform="translate(0.000000, 82.000000)">
                    <g id="icons_card" transform="translate(105.000000, 388.000000)">
                        <g id="6" transform="translate(100.000000, 0.000000)">
                            <g id="social-ok" transform="translate(2.000000, 1.995134)">
                                <g id="ok">
                                    <ellipse id="Oval" fill="#ED812B" cx="14" cy="13.9659367" rx="14" ry="13.9659367"></ellipse>
                                    <path d="M13.6009862,7.75885374 C15.3426219,7.76361075 16.7405041,9.18473674 16.7315827,10.9412974 C16.7227584,12.657343 15.3020081,14.0481741 13.5632995,14.0423524 C11.8423366,14.0364941 10.4309165,12.6131781 10.441106,10.8936649 C10.4508575,9.15535427 11.8630094,7.75412076 13.6009862,7.75885374 Z M17.1285303,15.2767627 C16.7434312,15.6711448 16.2798488,15.9565745 15.7650417,16.1556818 C15.2784082,16.3438391 14.7451238,16.4385565 14.2171447,16.5017014 C14.2970917,16.5882063 14.3345954,16.6307288 14.3843564,16.6803687 C15.1007687,17.3988705 15.820657,18.1137222 16.5346911,18.8342314 C16.7780078,19.0798762 16.8286835,19.3842859 16.6947679,19.6695331 C16.5485949,19.9816077 16.2205746,20.1867375 15.8987745,20.164655 C15.6949738,20.1506025 15.5359947,20.0496802 15.3949442,19.9078778 C14.854159,19.3651234 14.3031288,18.8320415 13.7736862,18.279067 C13.6190978,18.1181022 13.545188,18.1487622 13.408894,18.288557 C12.8649988,18.8473714 12.3121392,19.3972433 11.7561696,19.9441953 C11.5064497,20.18984 11.2093472,20.23437 10.9195624,20.0938451 C10.6116661,19.9452903 10.415915,19.6315731 10.4309165,19.3160309 C10.4415273,19.1032362 10.5465377,18.9400813 10.6932595,18.7944465 C11.402537,18.0883547 12.1096192,17.380073 12.8168842,16.6723388 C12.8639011,16.6254363 12.907442,16.5756139 12.9756804,16.5026139 C12.0110118,16.4020565 11.1411087,16.1651718 10.3963399,15.5842749 C10.3037698,15.512005 10.2084555,15.4422901 10.1243008,15.3612602 C9.79811001,15.049003 9.76536287,14.6911209 10.0231323,14.3228363 C10.2439468,14.0074766 10.6142273,13.9231617 10.9993264,14.104384 C11.0739679,14.1392415 11.1449506,14.1834064 11.2130061,14.2301264 C12.6008263,15.1814978 14.5074783,15.2075953 15.9007869,14.2726488 C16.0387274,14.1675289 16.1863639,14.081024 16.3574174,14.0374066 C16.6896454,13.9519967 16.99992,14.074089 17.1781084,14.3642637 C17.382092,14.6958659 17.3797137,15.0192555 17.1285303,15.2767627 Z M13.5881755,9.52596876 C12.7785928,9.52596876 12.1223008,10.1806938 12.1223008,10.9882768 C12.1223008,11.7958598 12.7785928,12.4505849 13.5881755,12.4505849 C14.3977582,12.4505849 15.0540501,11.7958598 15.0540501,10.9882768 C15.0540501,10.1806938 14.3977582,9.52596876 13.5881755,9.52596876 Z" id="Shape" fill="#FEFEFE" fill-rule="nonzero"></path>
                                </g>
                            </g>
                        </g>
                    </g>
                </g>
            </g>
        </g>
    </g>
</svg>