<?xml version="1.0" encoding="UTF-8"?>
<svg width="43px" height="14px" viewBox="0 0 43 14" version="1.1" xmlns="http://www.w3.org/2000/svg" xmlns:xlink="http://www.w3.org/1999/xlink">
    <!-- Generator: Sketch 61 (89581) - https://sketch.com -->
    <title>visa</title>
    <desc>Created with Sketch.</desc>
    <g id="desktop" stroke="none" stroke-width="1" fill="none" fill-rule="evenodd">
        <g id="D_Start" transform="translate(-561.000000, -2957.000000)">
            <g id="footer" transform="translate(70.000000, 2950.000000)">
                <g id="payments" transform="translate(491.000000, 4.000000)">
                    <g id="visa" transform="translate(-0.000000, 3.000000)">
                        <g id="形状_1_3_" transform="translate(3.708609, 0.000000)" fill="#005BAC">
                            <g id="形状_1">
                                <path d="M13.5668344,0.319403974 L11.3912715,13.6896821 L14.8719868,13.6896821 L17.0478278,0.319403974 L13.5668344,0.319403974 Z M8.4626755,0.319403974 L5.14402649,9.51536424 L4.7514702,7.53515232 L4.75174834,7.53580132 L4.66524503,7.09197351 C4.26360265,6.22638411 3.33339073,4.58124503 1.57690066,3.17725828 C1.05760265,2.7622649 0.53413245,2.40809272 0.0280927152,2.10556291 L3.04421192,13.6896821 L6.67086093,13.6896821 L12.2090199,0.319403974 L8.4626755,0.319403974 Z M22.047404,4.03125828 C22.047404,2.51962914 25.437351,2.71386755 26.9269139,3.5346755 L27.4235894,0.663099338 C27.4235894,0.663099338 25.8906358,0.0801059603 24.2927815,0.0801059603 C22.5653113,0.0801059603 18.4633113,0.835549669 18.4633113,4.50623841 C18.4633113,7.96080795 23.2778278,8.0037351 23.2778278,9.81743046 C23.2778278,11.6311258 18.9597086,11.3069934 17.5346755,10.1628874 L17.0167682,13.1643576 C17.0167682,13.1643576 18.5709536,13.9198013 20.9462252,13.9198013 C23.3212185,13.9198013 26.9052185,12.6893775 26.9052185,9.34245033 C26.9052185,5.86627815 22.047404,5.54251656 22.047404,4.03125828 Z M36.2513775,0.319403974 L33.4527682,0.319403974 C32.1605033,0.319403974 31.8458278,1.31581457 31.8458278,1.31581457 L26.6548874,13.6896821 L30.2829272,13.6896821 L31.008702,11.7038146 L35.4338146,11.7038146 L35.8420397,13.6896821 L39.0381192,13.6896821 L36.2513775,0.319403974 Z M32.0117881,8.96009272 L33.8408742,3.95662252 L34.8698278,8.96009272 L32.0117881,8.96009272 Z" id="Shape"></path>
                            </g>
                        </g>
                        <g id="形状_1_2_" transform="translate(0.000000, 0.370861)" fill="#F6AC1D">
                            <g id="形状_1_1_">
                                <path d="M7.33674172,1.20733775 C7.33674172,1.20733775 7.19266225,0.000649006623 5.65451656,0.000649006623 L0.0662913907,0.000649006623 L0.000834437086,0.227430464 C0.000834437086,0.227430464 2.68698013,0.775006623 5.264,2.82651656 C7.72670199,4.78725828 8.53007947,7.23141722 8.53007947,7.23141722 L7.33674172,1.20733775 Z" id="Path"></path>
                            </g>
                        </g>
                    </g>
                </g>
            </g>
        </g>
    </g>
</svg>