<?xml version="1.0" encoding="UTF-8"?>
<svg width="20px" height="24px" viewBox="0 0 20 24" version="1.1" xmlns="http://www.w3.org/2000/svg" xmlns:xlink="http://www.w3.org/1999/xlink">
    <!-- Generator: Sketch 61 (89581) - https://sketch.com -->
    <title>attached-file</title>
    <desc>Created with Sketch.</desc>
    <g id="style" stroke="none" stroke-width="1" fill="none" fill-rule="evenodd">
        <g id="D_Start" transform="translate(-634.000000, -2622.000000)" fill="#1F2229">
            <g id="Group-13" transform="translate(72.000000, 2604.000000)">
                <g id="link-1" transform="translate(556.000000, 14.000000)">
                    <g id="file" transform="translate(6.000000, 4.000000)">
                        <path d="M4.94483663,8.34384957 L14.5841194,8.34384957 C14.991941,8.33035547 15.3180484,7.99675142 15.3180484,7.58668083 C15.3180484,7.17661023 14.991941,6.84225651 14.5848691,6.82951209 L4.94408696,6.82951209 C4.53551571,6.84300618 4.21015806,7.17661023 4.21015806,7.58668083 C4.21015806,7.99675142 4.53626538,8.33110514 4.94333729,8.34384957 L4.94483663,8.34384957 Z M14.5848691,12.3366027 C15.0031861,12.3366027 15.3420379,11.997751 15.3420379,11.579434 C15.3420379,11.161117 15.0031861,10.8222653 14.5848691,10.8222653 L4.94558631,10.8222653 C4.52726932,10.8222653 4.18841757,11.161117 4.18841757,11.579434 C4.18841757,11.997751 4.52726932,12.3366027 4.94558631,12.3366027 L14.5848691,12.3366027 Z M15.9980009,0.00149934404 L3.53245455,0.00149934404 C3.51671144,0.00149934404 3.49796964,0.000749672018 3.47922784,0.000749672018 C1.57955894,0.000749672018 0.0352345849,1.52333354 0,3.41550572 L0,20.5814956 C0.0344849129,22.4766665 1.57955894,24 3.47997751,24 C3.49871931,24 3.51671144,24 3.53545324,23.9992503 L12.6387206,23.9992503 L12.6417192,23.9992503 C13.2339601,23.9992503 13.769226,23.7571063 14.1545574,23.3665271 L18.905229,18.5993628 C19.2913101,18.2072843 19.5304554,17.6690198 19.5312051,17.0745299 L19.5312051,3.41700506 C19.4959705,1.52258387 17.9516462,0 16.0519773,0 C16.0332355,0 16.0144937,0 15.9957519,0.000749672018 L15.9980009,0.00149934404 Z M1.48060224,20.5822453 L1.48060224,3.41925408 C1.52408321,2.35846817 2.39445243,1.51508715 3.46198538,1.51508715 C3.48597489,1.51508715 3.51071406,1.51583682 3.53470357,1.51658649 L15.9972512,1.51658649 C16.0174923,1.51583682 16.0422315,1.51508715 16.066221,1.51508715 C17.133754,1.51508715 18.0041232,2.35846817 18.0476042,3.41550572 L18.0476042,16.25139 L12.9445867,16.25139 C12.5345161,16.2566377 12.2039108,16.5909914 12.2039108,17.0018117 L12.2039108,17.0100581 L12.2039108,22.4879115 L3.53095521,22.4879115 C3.51071406,22.4886612 3.48597489,22.4894109 3.46198538,22.4894109 C2.39370276,22.4894109 1.52333354,21.6452802 1.48060224,20.587493 L1.48060224,20.5822453 Z M13.6882614,21.712001 L13.6882614,17.7649778 L17.6217905,17.7649778 L13.6882614,21.712001 Z" id="attached-file"></path>
                    </g>
                </g>
            </g>
        </g>
    </g>
</svg>