<?xml version="1.0" encoding="UTF-8"?>
<svg width="10px" height="7px" viewBox="0 0 10 7" version="1.1" xmlns="http://www.w3.org/2000/svg" xmlns:xlink="http://www.w3.org/1999/xlink">
    <!-- Generator: Sketch 61 (89581) - https://sketch.com -->
    <title>caret</title>
    <desc>Created with Sketch.</desc>
    <g id="desktop" stroke="none" stroke-width="1" fill="none" fill-rule="evenodd">
        <g id="D_02" transform="translate(-1135.000000, -1378.000000)" fill="#1F2229">
            <g id="form" transform="translate(70.000000, 1189.000000)">
                <g id="Group" transform="translate(0.000000, 118.000000)">
                    <g id="Input/Dropdown-Autocomplete/Empty" transform="translate(50.000000, 44.000000)">
                        <g id="Icons/Arrows/Opener" transform="translate(1014.000000, 23.000000)">
                            <path d="M8.01022908,2 C8.56251383,2 9.01022908,2.43788135 9.01022908,3.00292933 L9.01022908,7.99707067 C9.01022908,8.19489302 8.95361367,8.37933835 8.85548828,8.53472923 L8.84659764,8.54631726 C8.67100737,8.8252039 8.3603158,9.01022908 7.99707067,9.01022908 L3.00292933,9.01022908 C2.48859123,9.01022908 2.06468176,8.6275089 2.00674744,8.12756164 L2,8.01022908 C2,7.45794433 2.43788135,7.01022908 3.00292933,7.01022908 L7.01,7.01 L7.01022908,3.00292933 C7.01022908,2.48859123 7.39294926,2.06468176 7.89289653,2.00674744 L8.01022908,2 Z" id="caret" transform="translate(5.505115, 5.505115) rotate(45.000000) translate(-5.505115, -5.505115) "></path>
                        </g>
                    </g>
                </g>
            </g>
        </g>
    </g>
</svg>