<?xml version="1.0" encoding="UTF-8"?>
<svg width="15px" height="11px" viewBox="0 0 15 11" version="1.1" xmlns="http://www.w3.org/2000/svg" xmlns:xlink="http://www.w3.org/1999/xlink">
    <!-- Generator: Sketch 61 (89581) - https://sketch.com -->
    <title>check</title>
    <desc>Created with Sketch.</desc>
    <g id="Page-1" stroke="none" stroke-width="1" fill="none" fill-rule="evenodd">
        <g id="check" fill="#FFFFFF" fill-rule="nonzero">
            <path d="M12.1452101,0.933676563 L5.64318578,7.44739676 L2.28466127,4.07627665 C2.06333873,3.81896671 1.73765272,3.65702339 1.37328025,3.65702339 C0.711112011,3.65702339 0.174,4.1941354 0.174,4.85630364 C0.174,5.21977643 0.33594332,5.54636212 0.591453891,5.76588529 L4.80377958,9.97731129 C5.00980747,10.192336 5.29950607,10.3254894 5.62069366,10.3254894 L5.64498516,10.3254894 L5.65848043,10.3254894 C5.98146739,10.3254894 6.27386505,10.192336 6.48349168,9.97731129 L13.8249222,2.6232852 C14.0408466,2.40646109 14.174,2.10776563 14.174,1.7775812 C14.174,1.44739676 14.0408466,1.1487013 13.8249222,0.931877193 C13.6107971,0.715053081 13.313901,0.581 12.985516,0.581 C12.6571309,0.581 12.3602348,0.715053081 12.1461098,0.931877193 L12.1452101,0.933676563 Z"></path>
        </g>
    </g>
</svg>