<?xml version="1.0" encoding="UTF-8"?>
<svg width="24px" height="24px" viewBox="0 0 24 24" version="1.1" xmlns="http://www.w3.org/2000/svg" xmlns:xlink="http://www.w3.org/1999/xlink">
    <!-- Generator: Sketch 61 (89581) - https://sketch.com -->
    <title>close</title>
    <desc>Created with Sketch.</desc>
    <g id="desktop" stroke="none" stroke-width="1" fill="none" fill-rule="evenodd">
        <g id="D_modal-1" transform="translate(-1144.000000, -674.000000)" fill="#1F2229">
            <g id="pop-up" transform="translate(70.000000, 634.000000)">
                <g id="close" transform="translate(1074.000000, 40.000000)">
                    <path d="M0.368060384,0.200010755 C0.740303314,-0.0903056897 1.27238798,-0.0638354327 1.61081391,0.274590496 L1.61081391,0.274590496 L12,10.663 L22.3891861,0.274590496 C22.727612,-0.0638354327 23.2596967,-0.0903056897 23.6319396,0.200010755 L23.7214657,0.279192384 C24.0906354,0.648362026 24.0935012,1.24403842 23.7260676,1.61147203 L13.337,12 L23.7260676,22.3898442 C24.0652371,22.7290137 24.0888852,23.2626622 23.8001545,23.633117 L23.7214657,23.7221239 L23.6319396,23.8013055 C23.2596967,24.0916219 22.727612,24.0651517 22.3891861,23.7267258 L22.3891861,23.7267258 L12,13.337 L1.61081391,23.7267258 C1.27238798,24.0651517 0.740303314,24.0916219 0.368060384,23.8013055 L0.27853426,23.7221239 C-0.090635382,23.3529542 -0.0935012347,22.7572778 0.273932371,22.3898442 L10.662,12 L0.273932371,1.61147203 C-0.0652371112,1.27230255 -0.0888851614,0.738654 0.199845518,0.368199222 L0.27853426,0.279192384 Z"></path>
                </g>
            </g>
        </g>
    </g>
</svg>