<?xml version="1.0" encoding="UTF-8"?>
<svg width="18px" height="25px" viewBox="0 0 18 25" version="1.1" xmlns="http://www.w3.org/2000/svg" xmlns:xlink="http://www.w3.org/1999/xlink">
    <!-- Generator: Sketch 61 (89581) - https://sketch.com -->
    <title>location</title>
    <desc>Created with Sketch.</desc>
    <g id="mobile" stroke="none" stroke-width="1" fill="none" fill-rule="evenodd">
        <g id="M_start" transform="translate(-280.000000, -20.000000)" fill="#1F2229">
            <g id="header">
                <g id="pin" transform="translate(280.000000, 20.000000)">
                    <path d="M9,2.77607808e-15 C4.01736865,0.0546977558 0,4.10545727 0,9.0938926 L0,9.17203226 C0,14.0190348 8.05740339,24.2733012 8.40052106,24.7069763 C8.54120712,24.8859161 8.75692575,25 9,25 C9.24307425,25 9.45879288,24.8859161 9.59791576,24.7085391 C9.94259661,24.2733012 18,14.0190348 18,9.16812527 L18,9.0938926 C18,4.10467588 13.9818498,0.0546977558 9.00468954,0 L9,2.77607808e-15 Z M9,22.9488342 C6.4668693,19.616178 1.53973079,12.4531162 1.53973079,9.16812527 C1.5389492,9.12905545 1.53816761,9.08217166 1.53816761,9.03606926 C1.53816761,4.91576546 4.87867998,1.57607676 9,1.57607676 C13.12132,1.57607676 16.4618324,4.91576546 16.4618324,9.03606926 C16.4618324,9.08217166 16.4610508,9.12905545 16.4602692,9.17515784 C16.4602692,12.4515534 11.5323491,19.6130524 8.99921841,22.9472714 L9,22.9488342 Z M9,5.21113334 C8.97655232,5.21035194 8.9491967,5.21035194 8.92184108,5.21035194 C6.6341294,5.21035194 4.77941815,7.06460586 4.77941815,9.35175345 C4.77941815,11.638901 6.6341294,13.493155 8.92184108,13.493155 C11.2095528,13.493155 13.0634824,11.6396824 13.064264,9.35253485 L13.064264,9.31502782 C13.064264,7.06226167 11.2501954,5.23223104 9.00234477,5.20722635 L9,5.21113334 Z M9,11.9241108 C8.98593139,11.9241108 8.96873643,11.9248922 8.95154147,11.9248922 C7.52983066,11.9248922 6.37776813,10.7731137 6.37776813,9.35175345 C6.37776813,7.9303932 7.52983066,6.77861474 8.95154147,6.77861474 C10.3732523,6.77861474 11.5253148,7.9303932 11.5253148,9.35175345 L11.5253148,9.35331625 L11.5253148,9.36972557 C11.5253148,10.7692067 10.3974815,11.9061387 9.00156318,11.9209852 L9,11.9241108 Z" id="location"></path>
                </g>
            </g>
        </g>
    </g>
</svg>