<?xml version="1.0" encoding="UTF-8"?>
<svg width="19px" height="24px" viewBox="0 0 19 24" version="1.1" xmlns="http://www.w3.org/2000/svg" xmlns:xlink="http://www.w3.org/1999/xlink">
    <!-- Generator: Sketch 61 (89581) - https://sketch.com -->
    <title>phone</title>
    <desc>Created with Sketch.</desc>
    <g id="desktop" stroke="none" stroke-width="1" fill="none" fill-rule="evenodd">
        <g id="D_Start" transform="translate(-1045.000000, -31.000000)" fill="#1F2229">
            <g id="header">
                <g id="Group-2" transform="translate(1045.000000, 29.000000)">
                    <path d="M17.9290159,21.7237286 L15.0812582,18.7271003 C14.8008657,18.4334785 14.4077597,18.2515454 13.9722121,18.2515454 C13.5651907,18.2515454 13.1943491,18.4110003 12.918827,18.6716072 L12.2828996,19.2771144 C12.1228741,19.4316521 11.9057961,19.5264822 11.6671494,19.5264822 C11.5850494,19.5264822 11.5050366,19.515243 11.4298942,19.4941697 C9.68005043,18.9638241 8.21616519,17.9003231 7.18782755,16.4933268 L6.58668836,15.5049874 C5.83526438,14.3578955 5.3878888,12.9501967 5.3878888,11.4371312 C5.3878888,11.2706519 5.3934549,11.1055774 5.40389135,10.9419078 C5.44076678,10.4516016 5.75316435,10.0203006 6.19079924,9.81869907 L6.67505025,9.60375105 C7.24975045,9.3361197 7.64076923,8.7601152 7.64076923,8.09138803 C7.64076923,7.84763979 7.58858701,7.61653554 7.49535477,7.40790953 L5.8310898,3.67441697 C5.64949567,3.27964316 5.32318285,2.97899691 4.92242339,2.83850801 C4.7644852,2.78161 4.5954148,2.75 4.41869101,2.75 C4.16821635,2.75 3.93165695,2.81251756 3.72431959,2.92350379 C3.20249738,3.15039337 2.7495557,3.46157629 2.36619031,3.8437061 C0.813943175,5.62018826 -1.1376719,12.3678702 3.24563468,18.5444647 C4.10559769,19.756884 8.32331268,25.25 14.1218011,25.25 L14.130846,25.25 C14.8565268,25.25 15.5620304,25.1650042 16.2390077,25.0048469 C16.8011842,24.8334504 17.339009,24.5173504 17.7808184,24.0986935 C18.1433109,23.8022619 18.375,23.3498876 18.375,22.8434251 C18.375,22.408612 18.2052338,22.0145406 17.9283202,21.724431 L17.9290159,21.7237286 Z M16.845713,23.0351925 C16.5750613,23.2965018 16.2487484,23.5009132 15.8869517,23.6287581 C14.8210429,23.8668868 9.34608421,24.6992835 4.39712236,17.7261169 C0.269160786,11.9021495 2.46846747,5.88079517 3.42792457,4.78076707 C3.69231449,4.54193594 3.99914595,4.34314414 4.33380793,4.19703568 C4.37485795,4.18158191 4.3964266,4.17596235 4.41938678,4.17455746 C4.42286559,4.17455746 4.42564864,4.17385502 4.42843169,4.17385502 C4.44095543,4.17385502 4.4527834,4.17666479 4.4639156,4.18158191 C4.49939951,4.19282102 4.5279258,4.21810902 4.54323258,4.25112391 L6.21097637,7.99585558 C6.22419586,8.0246558 6.23184926,8.05767069 6.23184926,8.09349536 C6.23184926,8.18832537 6.17549246,8.26980894 6.09478396,8.3056336 L5.61609905,8.52479629 C4.70534535,8.94204833 4.06733072,9.82080641 3.99288409,10.8569121 C3.98105612,11.035333 3.97409849,11.2327199 3.97409849,11.4315117 C3.97409849,13.22415 4.50218257,14.8924557 5.40945745,16.2861056 L5.99668138,17.2540742 C7.22887756,18.9546923 8.95993578,20.2204973 10.9706907,20.8393509 C11.228123,20.9138101 11.4458968,20.946825 11.671324,20.946825 C12.2863784,20.946825 12.8457718,20.7030767 13.259055,20.3061956 L13.8949824,19.7006884 C13.9158553,19.6817224 13.9443815,19.6697808 13.9749951,19.6697808 C14.0090875,19.6697808 14.0403968,19.6845322 14.0626612,19.7077128 L16.910419,22.7043411 C16.9452071,22.7408682 16.96608,22.7900393 16.96608,22.84483 C16.96608,22.8497471 16.96608,22.8553667 16.9653843,22.8602838 C16.9535563,22.9354453 16.9083317,22.9993678 16.845713,23.0351925 L16.845713,23.0351925 Z" id="phone"></path>
                </g>
            </g>
        </g>
    </g>
</svg>