<?xml version="1.0" encoding="UTF-8"?>
<svg width="13px" height="17px" viewBox="0 0 13 17" version="1.1" xmlns="http://www.w3.org/2000/svg" xmlns:xlink="http://www.w3.org/1999/xlink">
    <!-- Generator: Sketch 61 (89581) - https://sketch.com -->
    <title>rub</title>
    <desc>Created with Sketch.</desc>
    <g id="desktop" stroke="none" stroke-width="1" fill="none" fill-rule="evenodd">
        <g id="D_Start" transform="translate(-182.000000, -710.000000)" fill="#1F2229" fill-rule="nonzero">
            <g id="cards" transform="translate(70.000000, 560.000000)">
                <g id="1" transform="translate(0.000000, 82.000000)">
                    <g id="price" transform="translate(18.000000, 60.000000)">
                        <g id="label" transform="translate(94.000000, 8.000000)">
                            <path d="M5.5859375,17 L5.5859375,14.0566406 L10.0332031,14.0566406 L10.0332031,11.6933594 L5.5859375,11.6933594 L5.5859375,10.46875 L7.3046875,10.46875 C8.31445312,10.46875 9.17919922,10.3255208 9.89892578,10.0390625 C10.6186523,9.75260417 11.2058919,9.37125651 11.6606445,8.89501953 C12.1153971,8.41878255 12.4448242,7.87988281 12.6489258,7.27832031 C12.8530273,6.67675781 12.9550781,6.0608724 12.9550781,5.43066406 C12.9550781,4.81477865 12.8566081,4.21321615 12.659668,3.62597656 C12.4627279,3.03873698 12.1368815,2.51416016 11.6821289,2.05224609 C11.2273763,1.59033203 10.6401367,1.21614583 9.92041016,0.9296875 C9.20068359,0.643229167 8.32877604,0.5 7.3046875,0.5 L7.3046875,0.5 L2.35253906,0.5 L2.35253906,8.11621094 L0.483398438,8.11621094 L0.483398438,10.4472656 L2.35253906,10.4472656 L2.35253906,11.6933594 L0.483398438,11.6933594 L0.483398438,14.0566406 L2.35253906,14.0566406 L2.35253906,17 L5.5859375,17 Z M7.01464844,8.11621094 L5.5859375,8.11621094 L5.5859375,3.421875 L7.01464844,3.421875 C7.3655599,3.421875 7.7039388,3.46305339 8.02978516,3.54541016 C8.35563151,3.62776693 8.63492839,3.75667318 8.86767578,3.93212891 C9.10042318,4.10758464 9.28662109,4.33496094 9.42626953,4.61425781 C9.56591797,4.89355469 9.63574219,5.23014323 9.63574219,5.62402344 C9.63574219,6.06803385 9.56591797,6.44759115 9.42626953,6.76269531 C9.28662109,7.07779948 9.10042318,7.33382161 8.86767578,7.53076172 C8.63492839,7.72770182 8.35563151,7.87451172 8.02978516,7.97119141 C7.7039388,8.06787109 7.3655599,8.11621094 7.01464844,8.11621094 L7.01464844,8.11621094 Z" id="rub"></path>
                        </g>
                    </g>
                </g>
            </g>
        </g>
    </g>
</svg>